REM DIRINDEX 1\2,1\3,1\4,1\5,1\6
REM DIRNAME folder01,folder02,folder03,folder04,folder05,folder06
TITLE ""
FILE "DISC2Track05.mp3" MP3
  TRACK 01 AUDIO
    TITLE "0:"
    INDEX 01 00:00:00
  TRACK 02 AUDIO
    TITLE "3:cjc129_1057"
    INDEX 01 00:00:05
  TRACK 03 AUDIO
    TITLE "0:"
    INDEX 01 00:01:64
  TRACK 04 AUDIO
    TITLE "5:cjc129_1058"
    INDEX 01 00:02:24
  TRACK 05 AUDIO
    TITLE "0:"
    INDEX 01 00:06:18
  TRACK 06 AUDIO
    TITLE "4:cjc129_1059"
    INDEX 01 00:07:07
  TRACK 07 AUDIO
    TITLE "0:"
    INDEX 01 00:08:66
  TRACK 08 AUDIO
    TITLE "6:cjc129_1060"
    INDEX 01 00:09:24
  TRACK 09 AUDIO
    TITLE "0:"
    INDEX 01 00:15:32
  TRACK 10 AUDIO
    TITLE "3:cjc129_1061"
    INDEX 01 00:17:06
  TRACK 11 AUDIO
    TITLE "0:"
    INDEX 01 00:18:58
  TRACK 12 AUDIO
    TITLE "5:cjc129_1062"
    INDEX 01 00:19:13
  TRACK 13 AUDIO
    TITLE "0:"
    INDEX 01 00:21:74
  TRACK 14 AUDIO
    TITLE "4:cjc129_1063"
    INDEX 01 00:22:64
  TRACK 15 AUDIO
    TITLE "0:"
    INDEX 01 00:24:39
  TRACK 16 AUDIO
    TITLE "6:cjc129_1064"
    INDEX 01 00:24:71
  TRACK 17 AUDIO
    TITLE "0:"
    INDEX 01 00:30:08
  TRACK 18 AUDIO
    TITLE "3:cjc129_1065"
    INDEX 01 00:31:59
  TRACK 19 AUDIO
    TITLE "0:"
    INDEX 01 00:33:48
  TRACK 20 AUDIO
    TITLE "5:cjc129_1066"
    INDEX 01 00:34:04
  TRACK 21 AUDIO
    TITLE "0:"
    INDEX 01 00:38:14
  TRACK 22 AUDIO
    TITLE "4:cjc129_1067"
    INDEX 01 00:39:03
  TRACK 23 AUDIO
    TITLE "0:"
    INDEX 01 00:40:66
  TRACK 24 AUDIO
    TITLE "6:cjc129_1068"
    INDEX 01 00:41:26
  TRACK 25 AUDIO
    TITLE "0:"
    INDEX 01 00:46:37
  TRACK 26 AUDIO
    TITLE "3:cjc129_1069"
    INDEX 01 00:48:14
  TRACK 27 AUDIO
    TITLE "0:"
    INDEX 01 00:49:55
  TRACK 28 AUDIO
    TITLE "5:cjc129_1070"
    INDEX 01 00:50:13
  TRACK 29 AUDIO
    TITLE "0:"
    INDEX 01 00:53:58
  TRACK 30 AUDIO
    TITLE "4:cjc129_1071"
    INDEX 01 00:54:48
  TRACK 31 AUDIO
    TITLE "0:"
    INDEX 01 00:56:14
  TRACK 32 AUDIO
    TITLE "6:cjc129_1072"
    INDEX 01 00:56:45
  TRACK 33 AUDIO
    TITLE "0:"
    INDEX 01 01:01:38
  TRACK 34 AUDIO
    TITLE "3:cjc129_1073"
    INDEX 01 01:03:08
  TRACK 35 AUDIO
    TITLE "0:"
    INDEX 01 01:04:39
  TRACK 36 AUDIO
    TITLE "5:cjc129_1074"
    INDEX 01 01:04:72
  TRACK 37 AUDIO
    TITLE "0:"
    INDEX 01 01:06:55
  TRACK 38 AUDIO
    TITLE "4:cjc129_1075"
    INDEX 01 01:07:43
  TRACK 39 AUDIO
    TITLE "0:"
    INDEX 01 01:08:72
  TRACK 40 AUDIO
    TITLE "6:cjc129_1076"
    INDEX 01 01:09:32
  TRACK 41 AUDIO
    TITLE "0:"
    INDEX 01 01:14:25
  TRACK 42 AUDIO
    TITLE "3:cjc129_1077"
    INDEX 01 01:16:01
  TRACK 43 AUDIO
    TITLE "0:"
    INDEX 01 01:17:35
  TRACK 44 AUDIO
    TITLE "5:cjc129_1078"
    INDEX 01 01:17:67
  TRACK 45 AUDIO
    TITLE "0:"
    INDEX 01 01:20:18
  TRACK 46 AUDIO
    TITLE "4:cjc129_1079"
    INDEX 01 01:21:08
  TRACK 47 AUDIO
    TITLE "0:"
    INDEX 01 01:22:42
  TRACK 48 AUDIO
    TITLE "6:cjc129_1080"
    INDEX 01 01:22:74
  TRACK 49 AUDIO
    TITLE "0:"
    INDEX 01 01:26:29
  TRACK 50 AUDIO
    TITLE "3:cjc129_1081"
    INDEX 01 01:28:06
  TRACK 51 AUDIO
    TITLE "0:"
    INDEX 01 01:29:21
  TRACK 52 AUDIO
    TITLE "5:cjc129_1082"
    INDEX 01 01:29:52
  TRACK 53 AUDIO
    TITLE "0:"
    INDEX 01 01:35:08
  TRACK 54 AUDIO
    TITLE "4:cjc129_1083"
    INDEX 01 01:35:71
  TRACK 55 AUDIO
    TITLE "0:"
    INDEX 01 01:37:09
  TRACK 56 AUDIO
    TITLE "6:cjc129_1084"
    INDEX 01 01:37:42
  TRACK 57 AUDIO
    TITLE "0:"
    INDEX 01 01:43:03
  TRACK 58 AUDIO
    TITLE "3:cjc129_1085"
    INDEX 01 01:44:52
  TRACK 59 AUDIO
    TITLE "0:"
    INDEX 01 01:45:73
  TRACK 60 AUDIO
    TITLE "5:cjc129_1086"
    INDEX 01 01:46:31
  TRACK 61 AUDIO
    TITLE "0:"
    INDEX 01 01:47:70
  TRACK 62 AUDIO
    TITLE "4:cjc129_1087"
    INDEX 01 01:48:61
  TRACK 63 AUDIO
    TITLE "0:"
    INDEX 01 01:50:07
  TRACK 64 AUDIO
    TITLE "6:cjc129_1088"
    INDEX 01 01:50:41
  TRACK 65 AUDIO
    TITLE "0:"
    INDEX 01 01:55:15
